<svg xmlns="http://www.w3.org/2000/svg" width="100" height="100" viewBox="-589 351 100 100"><path d="M-551.3 405.4c-1 0-1.8.8-1.8 1.8 0 2.7.2 5.8.4 8.5.1 1 .9 1.6 1.8 1.6h.2c1-.1 1.7-1 1.6-2-.3-2.5-.3-5.6-.3-8.1 0-1-.9-1.8-1.9-1.8z"/><path d="M-496.7 410.5l-.7-3.6c-.4-2.5-.4-5 .1-7.6l.5-2.5c.6-2.9.6-6 .1-9l-.6-3.2c-.3-1.6-1.3-2.8-2.9-3.2-1.5-.5-2.9-.3-4.1.8l-13 11.7c-.2-3.2-.4-5.4-.7-6.9-.3-2.4-2.3-4.2-4.6-4.7-2.6-.4-7.5-.9-16.3-.9s-13.8.5-16.4.9c-2.4.3-4.2 2.3-4.6 4.6-.3 1.8-.5 4.1-.7 7.1l-13.2-11.6c-1.1-1-2.8-1.4-4.1-.9-1.4.5-2.5 1.6-2.9 3.1l-.4 2.2c-.7 2.9-.7 6-.2 9l.7 3.6c.4 2.5.4 5-.1 7.6l-.5 2.5c-.6 2.9-.6 6-.1 9l.6 3.2c.3 1.6 1.3 2.8 2.9 3.2.4.2 1 .3 1.5.3 1 0 2-.3 2.9-1.1l13.1-11.6c.2 3.4.4 5.7.7 7.1.3 2.4 2.3 4.2 4.7 4.6 2.5.3 7.4.9 16.3.9s13.9-.4 16.3-.9c2.4-.3 4.3-2.3 4.7-4.7.3-1.5.5-3.6.7-7.1l13 11.6c.8.7 1.8 1.1 2.9 1.1.4 0 1-.1 1.4-.3 1.5-.5 2.5-1.6 2.9-3.1l.4-2.2c.2-2.9.2-5.8-.3-9zm-58-24.8c2.5-.3 7.3-.9 15.8-.9s13.4.4 15.8.9c.9.2 1.6.8 1.7 1.7.3 1.9.6 5.1.7 10.7-.3-.2-.8-.3-1.2-.3-2.8-.4-7.9-.9-17-.9-9.2 0-14.4.5-17 .9-.4.1-.8.3-1.2.3.2-5.7.4-8.9.7-10.7.1-.8.8-1.5 1.7-1.7zm-21.2 35.7c-.3.3-.5.2-.7.2-.2-.1-.3-.2-.4-.5l-.6-3.2c-.5-2.6-.4-5.1.1-7.7l.5-2.5c.5-2.9.6-6 0-8.8l-.7-3.6c-.4-2.6-.3-5.2.2-7.8l.4-2.2c.1-.3.3-.4.4-.5.2 0 .3-.1.6.2l15.4 13.6v.8l-6.3-1.1c-1-.2-2 .5-2.1 1.5-.2 1 .5 2 1.5 2.1l6.9 1.3v.6l-8.8 1.6c-1 .2-1.6 1.1-1.5 2.1.2.9 1 1.6 1.8 1.6h.3l8.3-1.6v.8l-15.3 13.1zm54.4-2.3c-.2.9-.8 1.6-1.7 1.7-2.4.3-7.1.8-15.7.8-8.7 0-13.5-.4-15.8-.8-.9-.2-1.6-.8-1.7-1.7-.3-2.3-.8-6.9-.8-15.8v-.3c.2-.9.9-1.5 1.8-1.6 2.6-.3 7.5-.9 16.5-.9 8.9 0 14 .4 16.5.9 1 .2 1.6.8 1.8 1.6v.3c0 8.8-.4 13.4-.9 15.8zm21.2-.1l-.4 2.2c-.1.3-.3.4-.4.5-.2.1-.3.1-.7-.2L-517 408v-.9l6 1.1h.3c.9 0 1.6-.6 1.8-1.6.2-1-.5-2-1.5-2.1l-6.7-1.2v-.6l9.2-1.6c1-.2 1.6-1.1 1.5-2.1-.2-1-1.1-1.6-2.1-1.5l-8.6 1.6v-1l15.2-13.5c.3-.3.5-.2.7-.2.2.1.3.2.4.5l.6 3.2c.5 2.6.4 5.1-.1 7.7l-.5 2.5c-.7 2.9-.7 6-.2 8.9l.7 3.6c.6 3 .5 5.6 0 8.2z"/></svg>