<svg version="1" xmlns="http://www.w3.org/2000/svg" width="933.333" height="933.333" viewBox="0 0 700.000000 700.000000"><path d="M620 274.6c-16.1 5.9-36.6 10.7-52.4 12.1-9.9 1-40.9.9-49.1-.1-13.5-1.5-15.1-1.7-16.5-2.1-.8-.2-3.1-.7-5-1-1.9-.3-6.6-1.2-10.5-2-3.8-.8-8.6-1.7-10.5-2-1.9-.3-4.2-.8-5-1-3.4-1-19.9-3.5-34-5.3-7.2-.9-40.2-.8-46.5.1-33.6 5-57.2 20.9-71.2 48.2-6.2 12-10.9 26.8-12.9 40-.3 2.2-.9 6-1.4 8.5-.5 2.5-1.2 7.2-1.5 10.5-.4 3.3-.9 6.3-1.1 6.6-.2.4-.6 2.4-1 4.5-1.1 7.2-6.6 22.9-10.6 30.4-8.6 16.2-20.4 26.8-35.3 31.8-8.2 2.8-13.4 3.5-24.5 3.4-22.2-.3-37.4-7.9-46.6-23.4l-3.3-5.6 4.2-1.7c14.2-5.6 22.8-11.7 31.3-22 11.9-14.5 17.3-32.3 16.9-55.3-.7-37.8-21.2-64.5-56.5-73.8-14.3-3.8-35.8-3.8-50.2-.1-9 2.4-22.2 8.1-25.3 11-.7.6-3.3 2.8-5.7 4.6-8.6 6.8-17 19.4-21.1 31.8-3.6 10.8-4.2 15.7-4.1 30.8.3 27.2 9.4 47.7 27.9 62.1 5.4 4.2 15.8 9.8 22.2 11.8 5 1.7 5.2 1.8 6.3 6.9.7 2.9 2.8 9 4.8 13.7 10.3 24.9 29.1 41.8 55.7 50.4 8.6 2.7 10 3 24.5 5.1 9.2 1.3 35.5 1.4 41 .1 1.4-.3 5.1-1.1 8.3-1.6 14-2.6 31.3-10 43.6-18.7 18.1-12.9 34.5-35.4 42-57.8 4-12.1 5.5-18 6.6-26.3.4-2.8 1-5.2 1.3-5.2.4.1 3.2 2.3 6.2 5.1 6.4 5.9 16 12.4 24.5 16.7 5.4 2.6 19.7 7.7 25 8.8 11.6 2.3 25.1 3.7 36.5 3.8 7.1 0 24.9-1.2 25.8-1.8.4-.2 3-.7 5.7-1 7.2-1 19.2-4.2 28.5-7.6 57-21 101-70.9 120-136 3-10.4 3.2-11 2.8-10.9-.2 0-4.6 1.6-9.8 3.5zm-454.8 49.2c9.9 4.4 15.8 14 16.3 26.8.4 11-2.5 20.5-7.8 25.5-6 5.8-12 8.1-21.2 8.4-17.9.5-29.7-11.3-29.8-30-.1-8.9.6-13.2 3-17.9 3.1-6.3 6.4-9.6 12.5-12.4 5.4-2.7 7-3 14.2-2.8 5.7.2 9.5.9 12.8 2.4z"/></svg>