<svg width="252" height="276" viewBox="0 0 252 276" xmlns="http://www.w3.org/2000/svg"><title>springtunes-logo</title><path d="M201.474 20.21c-33.685 6.064-46.485-2.694-82.19 4.043-17.516 2.694-33.684 9.431-43.79 24.252-3.368 4.042-6.736 9.432-8.757 15.495-8.084 19.537-5.39 42.442 7.41 68.716 2.695 5.39 4.716 10.105 6.737 14.82-8.084-1.347-23.579-2.02-39.073 4.043C14.863 161.01.042 182.569.042 211.537c0 37.726 24.253 64 65.347 64 34.358 0 56.59-18.19 63.327-46.484 4.042-14.148 10.105-55.242-18.863-114.527-.674-1.347-1.348-3.368-2.021-4.715 16.168 8.084 33.684 8.084 49.179 5.389C214.947 105.095 249.305 53.895 252 0c-16.168 11.453-30.99 16.842-50.526 20.21zM66.737 233.769c-16.169 0-24.253-10.779-24.253-25.6 1.348-13.473 8.084-25.6 24.253-25.6 14.82 0 24.252 10.78 24.252 25.6 0 14.821-9.431 25.6-24.252 25.6z" fill="#7DC265" fill-rule="evenodd"/></svg>