<?xml version="1.0" standalone="no"?>
<!DOCTYPE svg PUBLIC "-//W3C//DTD SVG 20010904//EN"
 "http://www.w3.org/TR/2001/REC-SVG-20010904/DTD/svg10.dtd">
<svg version="1.0" xmlns="http://www.w3.org/2000/svg"
 width="700.000000pt" height="700.000000pt" viewBox="0 0 700.000000 700.000000"
 preserveAspectRatio="xMidYMid meet">
<metadata>
Created by potrace 1.11, written by Peter Selinger 2001-2013
</metadata>
<g transform="translate(0.000000,700.000000) scale(0.100000,-0.100000)"
fill="#000000" stroke="none">
<path d="M6200 4254 c-161 -59 -366 -107 -524 -121 -99 -10 -409 -9 -491 1
-135 15 -151 17 -165 21 -8 2 -31 7 -50 10 -19 3 -66 12 -105 20 -38 8 -86 17
-105 20 -19 3 -42 8 -50 10 -34 10 -199 35 -340 53 -72 9 -402 8 -465 -1 -336
-50 -572 -209 -712 -482 -62 -120 -109 -268 -129 -400 -3 -22 -9 -60 -14 -85
-5 -25 -12 -72 -15 -105 -4 -33 -9 -63 -11 -66 -2 -4 -6 -24 -10 -45 -11 -72
-66 -229 -106 -304 -86 -162 -204 -268 -353 -318 -82 -28 -134 -35 -245 -34
-222 3 -374 79 -466 234 l-33 56 42 17 c142 56 228 117 313 220 119 145 173
323 169 553 -7 378 -212 645 -565 738 -143 38 -358 38 -502 1 -90 -24 -222
-81 -253 -110 -7 -6 -33 -28 -57 -46 -86 -68 -170 -194 -211 -318 -36 -108
-42 -157 -41 -308 3 -272 94 -477 279 -621 54 -42 158 -98 222 -118 50 -17 52
-18 63 -69 7 -29 28 -90 48 -137 103 -249 291 -418 557 -504 86 -27 100 -30
245 -51 92 -13 355 -14 410 -1 14 3 51 11 83 16 140 26 313 100 436 187 181
129 345 354 420 578 40 121 55 180 66 263 4 28 10 52 13 52 4 -1 32 -23 62
-51 64 -59 160 -124 245 -167 54 -26 197 -77 250 -88 116 -23 251 -37 365 -38
71 0 249 12 258 18 4 2 30 7 57 10 72 10 192 42 285 76 570 210 1010 709 1200
1360 30 104 32 110 28 109 -2 0 -46 -16 -98 -35z m-4548 -492 c99 -44 158
-140 163 -268 4 -110 -25 -205 -78 -255 -60 -58 -120 -81 -212 -84 -179 -5
-297 113 -298 300 -1 89 6 132 30 179 31 63 64 96 125 124 54 27 70 30 142 28
57 -2 95 -9 128 -24z"/>
</g>
</svg>
