<?xml version="1.0" encoding="UTF-8"?>
<svg width="322px" height="113px" viewBox="0 0 322 113" version="1.1" xmlns="http://www.w3.org/2000/svg" xmlns:xlink="http://www.w3.org/1999/xlink">
    <!-- Generator: Sketch 42 (36781) - http://www.bohemiancoding.com/sketch -->
    <title>Stroke 1</title>
    <desc>Created with Sketch.</desc>
    <defs>
        <path d="M107.481,290.001 C107.47,289.001 107.453,288.93 107.453,288.557 C107.453,267.079 124.865,249.461 146.343,249.461 C149.963,249.461 153.465,249.905 156.79,250.83 C160.626,221.6 185.617,199 215.894,199 C242.613,199 265.231,216.565 272.813,240.784 C279.853,233.727 289.599,229.363 300.354,229.363 C318.31,229.363 333.436,241.553 337.91,258.094 C344.229,255.352 351.238,254.114 358.565,254.114 C381.507,254.114 401.038,269.001 407.872,290.001 L107.481,290.001 Z" id="path-1"></path>
        <filter x="-50%" y="-50%" width="200%" height="200%" filterUnits="objectBoundingBox" id="filter-2">
            <feMorphology radius="2" operator="dilate" in="SourceAlpha" result="shadowSpreadOuter1"></feMorphology>
            <feOffset dx="0" dy="4" in="shadowSpreadOuter1" result="shadowOffsetOuter1"></feOffset>
            <feGaussianBlur stdDeviation="5" in="shadowOffsetOuter1" result="shadowBlurOuter1"></feGaussianBlur>
            <feComposite in="shadowBlurOuter1" in2="SourceAlpha" operator="out" result="shadowBlurOuter1"></feComposite>
            <feColorMatrix values="0 0 0 0 0   0 0 0 0 0   0 0 0 0 0  0 0 0 0.3 0" type="matrix" in="shadowBlurOuter1"></feColorMatrix>
        </filter>
    </defs>
    <g id="Working" stroke="none" stroke-width="1" fill="none" fill-rule="evenodd">
        <g id="Wireframes-Copy" transform="translate(-96.000000, -192.000000)">
            <g id="Stroke-1">
                <use fill="black" fill-opacity="1" filter="url(#filter-2)" xlink:href="#path-1"></use>
                <use stroke="#FFFFFF" stroke-width="4" stroke-linecap="round" stroke-linejoin="round" fill="#FFFFFF" fill-rule="evenodd" xlink:href="#path-1"></use>
            </g>
        </g>
    </g>
</svg>