<?xml version="1.0" encoding="UTF-8" standalone="no"?>
<svg width="33px" height="33px" viewBox="0 0 33 33" version="1.1" xmlns="http://www.w3.org/2000/svg" xmlns:xlink="http://www.w3.org/1999/xlink" xmlns:sketch="http://www.bohemiancoding.com/sketch/ns">
    <g id="Page-1" stroke="none" stroke-width="1" fill-rule="evenodd" sketch:type="MSPage">
        <g id="calendar" sketch:type="MSLayerGroup">
            <g id="Group" sketch:type="MSShapeGroup">
                <path d="M28.5,0 L4.5,0 C2.019,0 0,2.019 0,4.5 L0,28.5 C0,30.98 2.019,33 4.5,33 L28.5,33 C30.98,33 33,30.98 33,28.5 L33,4.5 C33,2.019 30.98,0 28.5,0 L28.5,0 Z M31.5,28.5 C31.5,30.148 30.15,31.5 28.5,31.5 L4.5,31.5 C2.85,31.5 1.5,30.148 1.5,28.5 L1.5,4.5 C1.5,2.851 2.85,1.5 4.5,1.5 L28.5,1.5 C30.15,1.5 31.5,2.851 31.5,4.5 L31.5,28.5 L31.5,28.5 Z" id="Shape"></path>
                <circle id="Oval" cx="9.25" cy="4.773" r="1.273"></circle>
                <circle id="Oval" cx="16.5" cy="4.773" r="1.273"></circle>
                <circle id="Oval" cx="23.75" cy="4.773" r="1.273"></circle>
                <rect id="Rectangle-path" x="11.134" y="12.902" width="4.596" height="4.088"></rect>
                <rect id="Rectangle-path-Copy" x="5" y="12.902" width="4.596" height="4.088"></rect>
                <rect id="Rectangle-path" x="17.271" y="12.902" width="4.595" height="4.088"></rect>
                <rect id="Rectangle-path" x="23.404" y="12.902" width="4.596" height="4.088"></rect>
                <rect id="Rectangle-path" x="5" y="18.359" width="4.595" height="4.086"></rect>
                <rect id="Rectangle-path" x="11.134" y="18.359" width="4.596" height="4.086"></rect>
                <rect id="Rectangle-path" x="17.271" y="18.359" width="4.595" height="4.086"></rect>
                <rect id="Rectangle-path" x="23.404" y="18.359" width="4.596" height="4.086"></rect>
                <rect id="Rectangle-path" x="5" y="23.816" width="4.595" height="4.086"></rect>
                <rect id="Rectangle-path" x="11.134" y="23.816" width="4.596" height="4.086"></rect>
                <rect id="Rectangle-path" x="17.271" y="23.816" width="4.595" height="4.086"></rect>
                <rect id="Rectangle-path" x="23.404" y="23.816" width="4.596" height="4.086"></rect>
            </g>
        </g>
    </g>
</svg>