<?xml version="1.0" encoding="UTF-8" standalone="no"?>
<svg width="50px" height="50px" viewBox="0 0 50 50" version="1.1" xmlns="http://www.w3.org/2000/svg" xmlns:xlink="http://www.w3.org/1999/xlink" xmlns:sketch="http://www.bohemiancoding.com/sketch/ns">
    <g transform="translate(25.000000, 25.000000) rotate(-180.000000) translate(-25.000000, -25.000000)">
        <path d="M30,38 C29.744,38 29.488,37.902 29.293,37.707 L17.293,25.707 C16.902,25.316 16.902,24.684 17.293,24.293 L29.293,12.293 C29.684,11.902 30.316,11.902 30.707,12.293 C31.098,12.684 31.098,13.316 30.707,13.707 L19.414,25 L30.707,36.293 C31.098,36.684 31.098,37.316 30.707,37.707 C30.512,37.902 30.256,38 30,38"/>
        <path d="M25,50 C11.215,50 9.09494702e-13,38.785 9.09494702e-13,25 C9.09494702e-13,11.215 11.215,-9.09494702e-13 25,-9.09494702e-13 C38.785,-9.09494702e-13 50,11.215 50,25 C50,38.785 38.785,50 25,50 L25,50 Z M25,2 C12.318,2 2,12.317 2,25 C2,37.683 12.318,48 25,48 C37.682,48 48,37.683 48,25 C48,12.317 37.682,2 25,2 L25,2 Z"/>
    </g>
</svg>
