<?xml version="1.0" encoding="utf-8"?>
<!-- Generator: Adobe Illustrator 18.1.1, SVG Export Plug-In . SVG Version: 6.00 Build 0)  -->
<svg version="1.1" id="Layer_1" xmlns="http://www.w3.org/2000/svg" xmlns:xlink="http://www.w3.org/1999/xlink" x="0px" y="0px"
	 width="32px" height="32px" viewBox="-623 385 32 32" enable-background="new -623 385 32 32" xml:space="preserve">
<g id="Page-1">
	<g id="clock">
		<g id="Oval-4">
			<path d="M-607,413.5c-6.9,0-12.5-5.6-12.5-12.5s5.6-12.5,12.5-12.5s12.5,5.6,12.5,12.5S-600.1,413.5-607,413.5z M-607,389.5
				c-6.3,0-11.5,5.2-11.5,11.5c0,6.3,5.2,11.5,11.5,11.5c6.3,0,11.5-5.2,11.5-11.5C-595.5,394.7-600.7,389.5-607,389.5z"/>
		</g>
		<g id="Line">
			<rect x="-618.5" y="400.5" width="2.5" height="1"/>
		</g>
		<g id="Line-Copy">
			<rect x="-598" y="400.5" width="2.5" height="1"/>
		</g>
		<g id="Line-Copy-3">
			<rect x="-607.5" y="410" width="1" height="2.5"/>
		</g>
		<g id="Line-Copy-2">
			<rect x="-607.5" y="389.5" width="1" height="2.5"/>
		</g>
		<g id="Line_1_">
			<polygon points="-606.9,401.7 -612.3,398.4 -611.7,397.6 -607.1,400.3 -602.4,393.7 -601.6,394.3 			"/>
		</g>
	</g>
</g>
</svg>
