<?xml version="1.0" encoding="utf-8"?>
<!-- Generator: Adobe Illustrator 18.1.1, SVG Export Plug-In . SVG Version: 6.00 Build 0)  -->
<svg version="1.1" baseProfile="tiny" id="Layer_1" xmlns="http://www.w3.org/2000/svg" xmlns:xlink="http://www.w3.org/1999/xlink"
	 x="0px" y="0px" width="32px" height="32px" viewBox="0 0 32 32" xml:space="preserve">
<path d="M17.374,16L31.714,1.661c0.379-0.379,0.379-0.996,0-1.375c-0.379-0.379-0.996-0.379-1.375,0L15.999,14.625L1.66,0.286
	c-0.379-0.379-0.996-0.379-1.375,0s-0.379,0.996,0,1.375L14.624,16L0.284,30.34c-0.379,0.379-0.379,0.996,0,1.375
	c0.191,0.191,0.44,0.284,0.689,0.284s0.498-0.095,0.689-0.284l14.337-14.339l14.339,14.339c0.191,0.191,0.44,0.284,0.689,0.284
	c0.249,0,0.498-0.095,0.689-0.284c0.379-0.379,0.379-0.996,0-1.375L17.374,16z"/>
</svg>
