<?xml version="1.0" encoding="UTF-8" standalone="no"?>
<svg width="40px" height="40px" viewBox="0 0 40 40" version="1.1" xmlns="http://www.w3.org/2000/svg" xmlns:xlink="http://www.w3.org/1999/xlink" xmlns:sketch="http://www.bohemiancoding.com/sketch/ns">
    <path d="M22.82775,19.99975 L39.41375,3.41375 C40.19475,2.63275 40.19475,1.36675 39.41375,0.58575 C38.63275,-0.19525 37.36675,-0.19525 36.58575,0.58575 L19.99975,17.17175 L3.41375,0.58575 C2.63275,-0.19525 1.36675,-0.19525 0.58575,0.58575 C-0.19525,1.36675 -0.19525,2.63275 0.58575,3.41375 L17.17175,19.99975 L0.58575,36.58575 C-0.19525,37.36675 -0.19525,38.63275 0.58575,39.41375 C0.97675,39.80475 1.48775,39.99975 1.99975,39.99975 C2.51175,39.99975 3.02275,39.80475 3.41375,39.41375 L19.99975,22.82775 L36.58575,39.41375 C36.97675,39.80475 37.48775,39.99975 37.99975,39.99975 C38.51175,39.99975 39.02275,39.80475 39.41375,39.41375 C40.19475,38.63275 40.19475,37.36675 39.41375,36.58575 L22.82775,19.99975"/>
</svg>
