<?xml version="1.0" encoding="UTF-8" standalone="no"?>
<svg width="55px" height="46px" viewBox="0 0 55 46" version="1.1" xmlns="http://www.w3.org/2000/svg" xmlns:xlink="http://www.w3.org/1999/xlink" xmlns:sketch="http://www.bohemiancoding.com/sketch/ns">
    <!-- Generator: Sketch 3.3.3 (12081) - http://www.bohemiancoding.com/sketch -->
    <title>Imported Layers</title>
    <desc>Created with Sketch.</desc>
    <defs></defs>
    <g id="Page-1" stroke="none" stroke-width="1" fill="none" fill-rule="evenodd" sketch:type="MSPage">
        <g id="Imported-Layers" sketch:type="MSLayerGroup" fill="#000000">
            <path d="M41.981,8.728 C38.882,3.778 33.418,0.728 27.574,0.728 C19.314,0.728 12.282,6.685 10.851,14.729 C5.382,14.781 0.949,19.247 0.949,24.728 C0.949,30.242 5.435,34.728 10.949,34.728 L17.949,34.728 C18.501,34.728 18.949,34.28 18.949,33.728 C18.949,33.176 18.501,32.728 17.949,32.728 L10.949,32.728 C6.538,32.728 2.949,29.139 2.949,24.728 C2.949,20.317 6.538,16.728 10.949,16.728 C11.176,16.728 11.399,16.744 11.623,16.763 C12.158,16.806 12.633,16.421 12.699,15.888 C13.618,8.385 20.012,2.728 27.574,2.728 C32.91,2.728 37.888,5.612 40.565,10.253 C40.752,10.577 41.111,10.765 41.474,10.753 L41.693,10.74 C41.778,10.734 41.862,10.728 41.949,10.728 C48.014,10.728 52.949,15.663 52.949,21.728 C52.949,27.794 48.014,32.728 41.949,32.728 L36.949,32.728 C36.397,32.728 35.949,33.176 35.949,33.728 C35.949,34.28 36.397,34.728 36.949,34.728 L41.949,34.728 C49.117,34.728 54.949,28.896 54.949,21.728 C54.949,14.571 49.134,8.746 41.981,8.728" id="Fill-1" sketch:type="MSShapeGroup"></path>
            <path d="M34.575,38.032 L28.949,42.555 L28.949,15.311 C28.949,14.759 28.501,14.311 27.949,14.311 C27.397,14.311 26.949,14.759 26.949,15.311 L26.949,42.559 L21.323,38.032 C20.893,37.686 20.263,37.753 19.917,38.184 C19.57,38.614 19.639,39.244 20.069,39.59 L27.319,45.424 C27.502,45.571 27.724,45.644 27.946,45.644 C28.167,45.644 28.39,45.571 28.572,45.424 L35.828,39.59 C36.258,39.244 36.327,38.615 35.98,38.185 C35.634,37.754 35.005,37.687 34.575,38.032" id="Fill-2" sketch:type="MSShapeGroup"></path>
        </g>
    </g>
</svg>