<?xml version="1.0" encoding="UTF-8" standalone="no"?>
<svg width="19px" height="14px" viewBox="0 0 19 14" version="1.1" xmlns="http://www.w3.org/2000/svg" xmlns:xlink="http://www.w3.org/1999/xlink" xmlns:sketch="http://www.bohemiancoding.com/sketch/ns">
    <g transform="translate(-95.000000, -482.000000)">
        <g transform="translate(-19.000000, 455.000000)">
            <path d="M123.408353,40.1896586 C118.447329,40.1896586 114.420013,34.2161816 114.420013,34.0136909 C114.420013,33.7887012 118.447329,27.8152242 123.408353,27.8152242 C128.391875,27.8152242 132.486688,34.0474393 132.419191,34.0136909 C132.351694,33.9574435 128.391875,40.1896586 123.408353,40.1896586 L123.408353,40.1896586 Z M123.374604,29.7951337 C121.27095,29.7951337 119.572278,31.6287999 119.572278,33.9124455 C119.572278,36.1735922 121.27095,38.0185078 123.374604,38.0185078 C125.489507,38.0185078 127.199429,36.1735922 127.199429,33.9124455 C127.199429,31.6287999 125.489507,29.7951337 123.374604,29.7951337 L123.374604,29.7951337 Z M123.363355,35.7123633 C122.36215,35.7123633 121.552187,34.8349034 121.552187,33.7662022 C121.552187,32.697501 122.36215,31.8312906 123.363355,31.8312906 C124.364559,31.8312906 125.163272,32.697501 125.163272,33.7662022 C125.163272,34.8349034 124.364559,35.7123633 123.363355,35.7123633 L123.363355,35.7123633 Z"/>
        </g>
    </g>
</svg>
