<?xml version="1.0" encoding="UTF-8" standalone="no"?>
<svg width="4px" height="17px" viewBox="0 0 4 17" version="1.1" xmlns="http://www.w3.org/2000/svg" xmlns:xlink="http://www.w3.org/1999/xlink">
    <g id="Page-1" stroke="none" stroke-width="1" fill="none" fill-rule="evenodd">
        <path d="M3,0.249866667 L3,4 L2.49973333,4 L2.49973333,0.249866667 C2.49973333,0.112533333 2.38746667,0 2.24986667,0 C2.11226667,0 2,0.112533333 2,0.249866667 L2,4 L1.49973333,4 L1.49973333,0.249866667 C1.49973333,0.112533333 1.38746667,0 1.24986667,0 C1.11226667,0 1,0.112533333 1,0.249866667 L1,4 L0.499733333,4 L0.499733333,0.249866667 C0.499733333,0.112533333 0.387466667,0 0.249866667,0 C0.112266667,0 0,0.112533333 0,0.249866667 L0,6 C0,6.552 0.447733333,7 1,7 L1,16.2498667 C1,16.6645333 1.3352,17 1.74986667,17 C2.16453333,17 2.49973333,16.6645333 2.49973333,16.2498667 L2.49973333,7 C3.052,7 3.49973333,6.552 3.49973333,6 L3.49973333,0.249866667 C3.49973333,0.112533333 3.38746667,0 3.24986667,0 C3.11226667,0 3,0.112533333 3,0.249866667 Z" fill="#607D8B"></path>
    </g>
</svg>
