<?xml version="1.0" encoding="utf-8"?>
<!-- Generator: Adobe Illustrator 19.2.1, SVG Export Plug-In . SVG Version: 6.00 Build 0)  -->
<svg version="1.1" id="Layer_1" xmlns="http://www.w3.org/2000/svg" xmlns:xlink="http://www.w3.org/1999/xlink" x="0px" y="0px"
	 width="32px" height="32px" viewBox="0 0 32 32" style="enable-background:new 0 0 32 32;" xml:space="preserve">
<g id="Page-1">
	<g id="hamburger">
		<g id="Line">
			<path d="M27.5,9h-23c-0.6,0-1-0.4-1-1s0.4-1,1-1h23c0.6,0,1,0.4,1,1S28.1,9,27.5,9z"/>
		</g>
		<g id="Line-Copy">
			<path d="M27.5,17h-23c-0.6,0-1-0.4-1-1s0.4-1,1-1h23c0.6,0,1,0.4,1,1S28.1,17,27.5,17z"/>
		</g>
		<g id="Line-Copy-2">
			<path d="M27.5,25h-23c-0.6,0-1-0.4-1-1s0.4-1,1-1h23c0.6,0,1,0.4,1,1S28.1,25,27.5,25z"/>
		</g>
	</g>
</g>
</svg>
