<?xml version="1.0" encoding="UTF-8" standalone="no"?>
<svg width="20px" height="14px" viewBox="0 0 20 14" version="1.1" xmlns="http://www.w3.org/2000/svg" xmlns:xlink="http://www.w3.org/1999/xlink" xmlns:sketch="http://www.bohemiancoding.com/sketch/ns">
    <g transform="translate(-353.000000, -103.000000)">
        <g transform="translate(0.000000, 43.000000)">
            <g transform="translate(280.000000, 59.000000)">
                <path d="M84.9200134,1.00925395 C83.5311421,1.09358905 82.3146643,1.74804257 81.4997341,2.71284832 C80.6255122,1.67784636 79.2897182,1 77.7741875,1 C75.1376959,1 73,3.00756413 73,5.48417597 C73,7.22849395 75.0956864,8.99978592 75.0956864,8.99978592 L81.4832494,15 L87.8708123,8.99978592 C87.8708123,8.99978592 89.3297311,7.78746623 89.8322764,6.37937891 L86.4200134,6.37937891 L84.9200134,6.37937891 L84.9200134,4.87937891 L84.9200134,1.87937891 L84.9200134,1.00925395 L84.9200134,1.00925395 Z M86.4200134,1.87937891 L86.4200134,4.87937891 L92.4200134,4.87937891 L92.4200134,1.87937891 L86.4200134,1.87937891 Z"/>
            </g>
        </g>
    </g>
</svg>
