<?xml version="1.0" encoding="UTF-8" standalone="no"?>
<svg width="20px" height="16px" viewBox="0 0 20 16" version="1.1" xmlns="http://www.w3.org/2000/svg" xmlns:xlink="http://www.w3.org/1999/xlink" xmlns:sketch="http://www.bohemiancoding.com/sketch/ns">
    <g transform="translate(-353.000000, -746.000000)">
        <g transform="translate(0.000000, 718.000000)">
            <g transform="translate(319.000000, 28.000000)">
                <path d="M49.4200134,4 L47.4200134,4 L47.4200134,2 L49.4200134,2 L49.4200134,-3.6739404e-16 L51.4200134,0 L51.4200134,2 L53.4200134,2 L53.4200134,4 L51.4200134,4 L51.4200134,6 L49.4200134,6 L49.4200134,4 Z M45.9200134,1.12987505 C44.5311421,1.21421015 43.3146643,1.86866366 42.4997341,2.83346942 C41.6255122,1.79846746 40.2897182,1.12062109 38.7741875,1.12062109 C36.1376959,1.12062109 34,3.12818523 34,5.60479707 C34,7.34911505 36.0956864,9.12040701 36.0956864,9.12040701 L42.4832494,15.1206211 L48.8708123,9.12040701 C48.8708123,9.12040701 49.9893213,8.19095815 50.6049689,7.01446533 L48.0102844,7.01446533 L48.0102844,5.49139404 L47.1168197,5.49139404 L47.2250061,6.02209473 L47.1168197,5.49139404 L45.9200134,5.49139404 L45.9200134,2 L45.9200134,1.12987505 L45.9200134,1.12987505 Z"/>
            </g>
        </g>
    </g>
</svg>
