<svg xmlns="http://www.w3.org/2000/svg" width="32px" height="32px" viewBox="0 0 32 32">
<path d="M28.295,13.474h-2.863c0.168,0.842,0.337,1.684,0.337,2.526c0,5.389-4.379,9.768-9.768,9.768S6.232,21.389,6.232,16
	c0-0.842,0.168-1.684,0.337-2.526H3.705v13.474c0,0.674,0.505,1.179,1.179,1.179h22.232c0.674,0,1.179-0.505,1.179-1.179
	C28.295,27.116,28.295,13.474,28.295,13.474z M28.295,4.884c0-0.674-0.505-1.179-1.179-1.179h-3.705
	c-0.674,0-1.179,0.505-1.179,1.179v3.705c0,0.674,0.505,1.179,1.179,1.179h3.705c0.674,0,1.179-0.505,1.179-1.179V4.884z M16,9.768
	c-3.368,0-6.232,2.695-6.232,6.232s2.695,6.232,6.232,6.232s6.232-2.863,6.232-6.232S19.368,9.768,16,9.768 M28.295,32H3.705
	C1.684,32,0,30.316,0,28.295V3.705C0,1.684,1.684,0,3.705,0h24.589C30.316,0,32,1.684,32,3.705v24.589
	C32,30.316,30.316,32,28.295,32"/>
</svg>
