<?xml version="1.0" encoding="UTF-8" standalone="no"?>
<svg width="24px" height="24px" viewBox="0 0 24 24" version="1.1" xmlns="http://www.w3.org/2000/svg" xmlns:xlink="http://www.w3.org/1999/xlink">
    <g id="slices" stroke="none" stroke-width="1" fill="none" fill-rule="evenodd">
        <g id="linkedin" fill="#0075B3">
            <path d="M11.5,23 C17.8512746,23 23,17.8512746 23,11.5 C23,5.14872538 17.8512746,0 11.5,0 C5.14872538,0 0,5.14872538 0,11.5 C0,17.8512746 5.14872538,23 11.5,23 Z M18.0229285,17 L15.5319487,17 L15.5319487,13.1018663 C15.5319487,12.1724728 15.5160855,10.9766719 14.237703,10.9766719 C12.9411244,10.9766719 12.7433017,11.9895801 12.7433017,13.0356143 L12.7433017,17 L10.2551213,17 L10.2551213,8.9844479 L12.6429907,8.9844479 L12.6429907,10.0804044 L12.6775163,10.0804044 C13.0097092,9.45007776 13.8224619,8.78569207 15.034126,8.78569207 C17.556832,8.78569207 18.0229285,10.4452566 18.0229285,12.6040435 L18.0229285,17 Z M7.44641213,7.88942457 C6.64625661,7.88942457 6.001,7.24230171 6.001,6.444479 C6.001,5.64712286 6.64625661,5 7.44641213,5 C8.24330171,5 8.88995801,5.64712286 8.88995801,6.444479 C8.88995801,7.24230171 8.24330171,7.88942457 7.44641213,7.88942457 Z M6.19882271,8.9844479 L8.69260187,8.9844479 L8.69260187,17 L6.19882271,17 L6.19882271,8.9844479 Z" id="Oval-72-Copy-2"></path>
        </g>
    </g>
</svg>