<?xml version="1.0" encoding="utf-8"?>
<!-- Generator: Adobe Illustrator 17.1.0, SVG Export Plug-In . SVG Version: 6.00 Build 0)  -->
<!DOCTYPE svg PUBLIC "-//W3C//DTD SVG 1.1//EN" "http://www.w3.org/Graphics/SVG/1.1/DTD/svg11.dtd">
<svg version="1.1" id="Layer_1" xmlns="http://www.w3.org/2000/svg" xmlns:xlink="http://www.w3.org/1999/xlink" x="0px" y="0px"
	 width="16px" height="16px" viewBox="0 0 16 16" enable-background="new 0 0 16 16" xml:space="preserve">
<path id="colourise" d="M10.4,3.5V1.1c0-0.2-0.3-0.6-0.6-0.6c-0.3,0-0.7,0.4-0.7,0.6v2.5H5.8C5.1,3.5,4.5,4.1,4.5,4.9v9.3
	c0,0.7,0.7,1.3,1.3,1.3h4.4c0.7,0,1.3-0.6,1.3-1.3V4.8C11.5,4.1,11.2,3.7,10.4,3.5z M6,14.4c-0.3,0-0.6-0.2-0.6-0.6
	c0-0.3,0.2-0.4,0.6-0.4s0.6,0.2,0.6,0.4C6.6,14.2,6.2,14.4,6,14.4z M6,12.6c-0.3,0-0.6-0.2-0.6-0.4c0-0.3,0.2-0.6,0.6-0.6
	s0.6,0.2,0.6,0.6l0,0C6.6,12.4,6.2,12.6,6,12.6z M5.5,10.3C5.5,10,5.7,9.8,6,9.8s0.6,0.2,0.6,0.5S6.4,10.9,6,10.9
	C5.7,10.8,5.5,10.6,5.5,10.3z M7.9,14.4c-0.3,0-0.6-0.2-0.6-0.6c0-0.3,0.2-0.4,0.6-0.4c0.4,0,0.6,0.2,0.6,0.6
	C8.4,14.2,8.3,14.4,7.9,14.4z M7.9,12.6c-0.3,0-0.6-0.2-0.6-0.4c0-0.3,0.2-0.6,0.6-0.6c0.4,0,0.6,0.2,0.6,0.6
	C8.4,12.4,8.3,12.6,7.9,12.6z M7.9,10.8c-0.3,0-0.6-0.2-0.6-0.6c0-0.3,0.2-0.4,0.6-0.4c0.4,0,0.6,0.1,0.6,0.4
	C8.4,10.6,8.3,10.8,7.9,10.8z M6.6,8.8c-0.6,0-1.1-0.3-1.1-1V5.6c0-0.4,0.4-1,1.1-1h2.8c0.4,0,1,0.4,1,1v2.2c0,0.4-0.4,1-1,1H6.6
	L6.6,8.8z M10,9.7c0.3,0,0.6,0.2,0.6,0.4c0,0.3-0.2,0.6-0.6,0.6c-0.3,0-0.6-0.1-0.6-0.4C9.4,10,9.7,9.7,10,9.7z M10,14.4
	c-0.3,0-0.4-0.2-0.4-0.6c0-0.3,0.2-0.4,0.4-0.4c0.2,0,0.6,0.2,0.6,0.4C10.6,14.2,10.3,14.4,10,14.4z M10,12.6
	c-0.3,0-0.4-0.2-0.4-0.4c0-0.3,0.2-0.6,0.4-0.6c0.2,0,0.6,0.2,0.6,0.6C10.5,12.4,10.3,12.6,10,12.6z"/>
</svg>
