<?xml version="1.0" encoding="utf-8"?>
<!-- Generator: Adobe Illustrator 18.1.1, SVG Export Plug-In . SVG Version: 6.00 Build 0)  -->
<svg version="1.1" id="Layer_1" xmlns:sketch="http://www.bohemiancoding.com/sketch/ns"
	 xmlns="http://www.w3.org/2000/svg" xmlns:xlink="http://www.w3.org/1999/xlink" x="0px" y="0px" width="32px" height="32px"
	 viewBox="-623 385 32 32" enable-background="new -623 385 32 32" xml:space="preserve">
<title>Pen</title>
<desc>Created with Sketch.</desc>
<g id="Page-1" sketch:type="MSPage">
	<g id="Pen" sketch:type="MSArtboardGroup">
		<g id="Oval-7-_x2B_-Line-_x2B_-Line-Copy" transform="translate(1.000000, 1.000000)" sketch:type="MSLayerGroup">
			<g id="Oval-7">
				<path d="M-620.1,412.4l4.5-11.1l12.9-12.9c0.8-0.9,2-1.3,3.2-1.3s2.3,0.5,3.2,1.3c0.9,0.8,1.3,2,1.3,3.2c0,1.2-0.5,2.3-1.3,3.2
					l-13.1,13.1L-620.1,412.4z M-614.9,401.9l-3.4,8.6l8.4-3.6L-597,394c0.7-0.7,1-1.5,1-2.5c0-0.9-0.4-1.8-1-2.5
					c-1.3-1.3-3.6-1.3-4.9,0L-614.9,401.9z"/>
			</g>
			<g id="Line">
				<rect x="-615.9" y="403.4" transform="matrix(0.7071 0.7071 -0.7071 0.7071 106.3683 550.9982)" width="8" height="1"/>
			</g>
			<g id="Line-Copy">
				<rect x="-603.9" y="391.4" transform="matrix(0.7071 0.7071 -0.7071 0.7071 101.3891 538.9767)" width="8" height="1"/>
			</g>
		</g>
	</g>
</g>
</svg>
