<?xml version="1.0" encoding="utf-8"?>
<!-- Generator: Adobe Illustrator 18.1.1, SVG Export Plug-In . SVG Version: 6.00 Build 0)  -->
<svg version="1.1" id="Layer_1" xmlns="http://www.w3.org/2000/svg" xmlns:xlink="http://www.w3.org/1999/xlink" x="0px" y="0px"
	 width="32px" height="32px" viewBox="-623 385 32 32" enable-background="new -623 385 32 32" xml:space="preserve">
<g id="Page-1">
	<g id="play">
		<g id="Oval-4">
			<path d="M-607,409.5c-4.7,0-8.5-3.8-8.5-8.5c0-4.7,3.8-8.5,8.5-8.5c4.7,0,8.5,3.8,8.5,8.5C-598.5,405.7-602.3,409.5-607,409.5z
				 M-607,393.5c-4.1,0-7.5,3.4-7.5,7.5s3.4,7.5,7.5,7.5s7.5-3.4,7.5-7.5S-602.9,393.5-607,393.5z"/>
		</g>
		<g id="Triangle-1">
			<path d="M-608.1,404.1c-0.5,0.3-0.9,0-0.9-0.5v-4.8c0-0.6,0.4-0.8,0.9-0.5l4.6,2.5c0.5,0.3,0.5,0.7,0,0.9L-608.1,404.1z"/>
		</g>
	</g>
</g>
</svg>
