<?xml version="1.0" encoding="utf-8"?>
<!-- Generator: Adobe Illustrator 18.1.1, SVG Export Plug-In . SVG Version: 6.00 Build 0)  -->
<svg version="1.1" id="Layer_1" xmlns="http://www.w3.org/2000/svg" xmlns:xlink="http://www.w3.org/1999/xlink" x="0px" y="0px"
	 width="32px" height="32px" viewBox="-623 385 32 32" enable-background="new -623 385 32 32" xml:space="preserve">
<g id="Page-1">
	<g id="search">
		<g id="Oval-6">
			<path d="M-609,410c-6.1,0-11-4.9-11-11s4.9-11,11-11s11,4.9,11,11S-602.9,410-609,410z M-609,390c-5,0-9,4-9,9c0,5,4,9,9,9
				c5,0,9-4,9-9C-600,394-604,390-609,390z"/>
		</g>
		<g id="Rectangle-6">
			<path d="M-603,406.4l1.4-1.4l7.1,7.1l-1.4,1.4L-603,406.4z"/>
			<path d="M-595.9,414.2l-7.8-7.8l2.1-2.1l7.8,7.8L-595.9,414.2z M-602.3,406.4l6.4,6.4l0.7-0.7l-6.4-6.4L-602.3,406.4z"/>
		</g>
	</g>
</g>
</svg>
