<?xml version="1.0" encoding="UTF-8" standalone="no"?>
<svg width="20px" height="20px" viewBox="0 0 20 20" version="1.1" xmlns="http://www.w3.org/2000/svg" xmlns:xlink="http://www.w3.org/1999/xlink">
    <g id="Page-1" stroke="none" stroke-width="1" fill-rule="evenodd">
        <g id="Artboard-37" transform="translate(-128.000000, -98.000000)">
            <g id="Group" transform="translate(67.000000, 40.000000)">
                <g transform="translate(61.000000, 58.000000)" id="Shape">
                    <path d="M3.9569863,19.8325 C3.58931507,19.8325 3.21753425,19.7136111 2.88191781,19.4883333 C2.75753425,19.4047222 2.64876712,19.2944444 2.56684932,19.1688889 C2.16931507,18.5591667 2.11945205,17.8416667 2.43315068,17.2497222 C2.73534247,16.68 3.31917808,16.3258333 3.9569863,16.3258333 C4.32465753,16.3258333 4.69643836,16.4447222 5.03205479,16.67 C5.15616438,16.7533333 5.26493151,16.8636111 5.34684932,16.9891667 C5.74465753,17.5991667 5.79452055,18.3166667 5.48082192,18.9086111 C5.17863014,19.4783333 4.59479452,19.8325 3.9569863,19.8325 L3.9569863,19.8325 Z M3.9569863,17.3044444 C3.67506849,17.3044444 3.4169863,17.4611111 3.28328767,17.7133333 C3.19808219,17.8738889 3.09643836,18.2066667 3.37232877,18.6297222 C3.3830137,18.6461111 3.39835616,18.6613889 3.41452055,18.6725 C3.59424658,18.7930556 3.7769863,18.8541667 3.95726027,18.8541667 C4.23917808,18.8541667 4.49726027,18.6975 4.6309589,18.4452778 C4.71616438,18.2847222 4.81780822,17.9519444 4.54191781,17.5288889 C4.53123288,17.5127778 4.51589041,17.4972222 4.49972603,17.4861111 C4.32,17.3655556 4.13726027,17.3044444 3.9569863,17.3044444 Z M15.2978082,19.8325 C14.930137,19.8325 14.5583562,19.7136111 14.2227397,19.4883333 C14.0983562,19.4047222 13.989589,19.2944444 13.9076712,19.1688889 C13.510137,18.5591667 13.460274,17.8416667 13.7739726,17.2497222 C14.0761644,16.68 14.66,16.3258333 15.2978082,16.3258333 C15.6654795,16.3258333 16.0372603,16.4447222 16.3728767,16.67 C16.4969863,16.7533333 16.6057534,16.8636111 16.6876712,16.9891667 C17.0854795,17.5991667 17.1353425,18.3166667 16.8216438,18.9086111 C16.5194521,19.4783333 15.9356164,19.8325 15.2978082,19.8325 Z M3.44422877,3.22181641 L4.42328767,10.7375 C4.42575342,10.7558333 4.42410959,10.7738889 4.41863014,10.7913889 L3.48356164,13.7544444 C3.35315068,14.1683333 3.4230137,14.6072222 3.67561644,14.9580556 C3.92849315,15.3088889 4.31917808,15.5102778 4.74767123,15.5102778 L16.1424658,15.5102778 C16.4756164,15.5102778 16.7457534,15.2366667 16.7457534,14.8988889 C16.7457534,14.5611111 16.4756164,14.2872222 16.1424658,14.2872222 L4.74794521,14.2872222 C4.69726027,14.2872222 4.66684932,14.26 4.65041096,14.2369444 C4.63369863,14.2141667 4.61753425,14.1766667 4.63287671,14.1275 L5.48486475,11.4266342 C5.54279671,11.4354126 5.60181891,11.4403244 5.66164384,11.4411111 L17.1780822,11.5888889 L17.1950685,11.5888889 C17.7972603,11.5888889 18.3252055,11.1763889 18.4786301,10.5858333 L19.7413699,5.72083333 C19.8358904,5.35555556 19.7742466,4.96444444 19.5720548,4.6475 C19.369863,4.33055556 19.0430137,4.11333333 18.6709589,4.05027778 L4.25671233,1.73666667 C4.23736523,1.7334106 4.21838649,1.73066285 4.19977174,1.72839616 C4.0915243,1.61635916 3.96304781,1.52280272 3.81835616,1.45333333 L1.11808219,0.156388889 C0.817260274,0.0116666667 0.457534247,0.141944444 0.314794521,0.447222222 C0.172054795,0.7525 0.300547945,1.11722222 0.601643836,1.26166667 L3.29316648,2.55440784 C3.30543459,2.69211514 3.34268234,2.82278197 3.37479452,2.93527778 C3.40223993,3.03150057 3.43040575,3.13088855 3.44422877,3.22181641 Z M15.2978082,17.3044444 C15.0158904,17.3044444 14.7578082,17.4611111 14.6241096,17.7133333 C14.5389041,17.8738889 14.4372603,18.2066667 14.7131507,18.6297222 C14.7238356,18.6461111 14.7391781,18.6613889 14.7553425,18.6725 C14.9350685,18.7930556 15.1178082,18.8541667 15.2980822,18.8541667 C15.58,18.8541667 15.8380822,18.6975 15.9717808,18.4452778 C16.0569863,18.2847222 16.1586301,17.9519444 15.8827397,17.5288889 C15.8720548,17.5127778 15.8567123,17.4972222 15.8405479,17.4861111 C15.6608219,17.3655556 15.4780822,17.3044444 15.2978082,17.3044444 Z M4.63671233,3.03611111 C4.63890411,3.05055556 4.64109589,3.06527778 4.6430137,3.08 L5.55890411,10.1116667 C5.56657534,10.1713889 5.61753425,10.2172222 5.6769863,10.2177778 L17.1934247,10.3655556 L17.1950685,10.9772222 L17.1950685,10.3655556 C17.249863,10.3655556 17.2978082,10.3280556 17.3117808,10.2741667 L18.5745205,5.40944444 C18.5857534,5.36638889 18.5723288,5.3325 18.5591781,5.31194444 C18.5460274,5.29111111 18.5210959,5.265 18.4775342,5.2575 L4.63671233,3.03611111 L4.63671233,3.03611111 Z"></path>
                </g>
            </g>
        </g>
    </g>
</svg>