<?xml version="1.0" encoding="utf-8"?>
<svg width="349px" height="57px" viewBox="546 258 349 57" version="1.1" xmlns="http://www.w3.org/2000/svg" xmlns:xlink="http://www.w3.org/1999/xlink">
    <g id="Page-1" stroke="none" stroke-width="1" fill="none" fill-rule="evenodd" transform="translate(546.000000, 258.000000)">
        <g id="Group-3" fill="#FFFFFF">
            <path d="M259.242056,26.836455 C258.750342,24.460505 256.022863,22.030405 252.200551,22.030405 C248.3792,22.030405 245.705502,24.677105 245.705502,30.183305 C245.705502,35.692355 248.3792,38.339055 252.200551,38.339055 C256.022863,38.339055 258.750342,35.908955 259.242056,33.532055 L259.242056,26.836455 Z M266.668673,1.294755 L266.668673,36.772505 L267.158467,44.494105 L260.334968,44.494105 L259.734731,41.146305 C258.532335,43.900355 255.530188,45.250305 251.327566,45.250305 C242.702394,45.250305 237.954276,39.904655 237.954276,30.183305 C237.954276,20.464805 242.702394,15.119155 251.327566,15.119155 C255.2584,15.119155 258.041581,16.252505 259.242056,18.790905 L259.242056,1.294755 L266.668673,1.294755 Z M226.10703,26.836455 C225.615316,24.460505 222.9954,22.030405 219.174048,22.030405 C215.352697,22.030405 212.678039,24.677105 212.678039,30.183305 C212.678039,35.692355 215.352697,38.339055 219.174048,38.339055 C222.9954,38.339055 225.615316,35.908955 226.10703,33.532055 L226.10703,26.836455 Z M233.531727,23.596005 L233.531727,36.772505 L234.022481,44.494105 L227.198982,44.494105 L226.599705,41.146305 C225.39827,43.900355 222.504646,45.250305 218.301063,45.250305 C209.675892,45.250305 204.927774,39.904655 204.927774,30.183305 C204.927774,20.464805 209.675892,15.119155 218.301063,15.119155 C222.66791,15.119155 225.179303,16.684755 226.599705,19.276355 L227.198982,15.874405 L234.022481,15.874405 L233.531727,23.596005 Z M180.906753,30.239355 C180.906753,36.178755 183.309623,38.447355 187.348981,38.447355 C191.388338,38.447355 193.791209,36.178755 193.791209,30.239355 C193.791209,24.298055 191.388338,22.030405 187.348981,22.030405 C183.309623,22.030405 180.906753,24.298055 180.906753,30.239355 L180.906753,30.239355 Z M173.156487,30.183305 C173.156487,20.249155 178.614326,15.119155 187.348981,15.119155 C196.083635,15.119155 201.542435,20.249155 201.542435,30.183305 C201.542435,40.120305 196.083635,45.250305 187.348981,45.250305 C178.614326,45.250305 173.156487,40.120305 173.156487,30.183305 L173.156487,30.183305 Z M161.58391,44.494105 L169.007646,44.494105 L169.007646,1.294755 L161.58391,1.294755 L161.58391,44.494105 Z M141.930697,36.934955 C145.80679,36.934955 148.372925,34.503905 148.918421,32.019655 L148.918421,26.944755 C148.372925,24.460505 145.80679,21.976255 141.930697,21.976255 C138.110306,21.976255 135.216681,23.865805 135.216681,29.536355 C135.216681,35.152755 138.110306,36.934955 141.930697,36.934955 L141.930697,36.934955 Z M148.863679,40.066155 C147.553721,42.711905 144.44209,43.738855 140.729262,43.738855 C132.159792,43.738855 127.465455,39.148455 127.465455,29.428055 C127.465455,19.708605 132.651507,15.119155 140.948228,15.119155 C144.988546,15.119155 147.991654,16.577405 149.356354,19.383705 L149.955631,15.874405 L156.77913,15.874405 L156.288376,23.596005 L156.288376,44.602405 C156.288376,52.485505 150.28312,56.049905 141.985438,56.049905 C132.323057,56.049905 128.66593,52.594755 128.174216,46.870055 L136.253891,45.789905 C136.526639,48.058505 137.345843,49.786555 141.821213,49.786555 C146.025756,49.786555 148.863679,48.112655 148.863679,43.953555 L148.863679,40.066155 Z M104.046593,19.547105 C105.629299,16.846255 108.577665,15.119155 113.053995,15.119155 C119.768011,15.119155 123.697885,18.358655 123.697885,25.216705 L123.697885,44.494105 L116.274149,44.494105 L116.274149,26.295905 C116.274149,23.327155 114.799966,22.030405 111.744037,22.030405 C107.976467,22.030405 105.193286,24.568805 104.482605,26.782305 L104.482605,44.494105 L97.1136106,44.494105 L97.1136106,23.596005 L96.6228565,15.874405 L103.446355,15.874405 L104.046593,19.547105 Z M84.3395982,44.494105 L91.7633345,44.494105 L91.7633345,15.874405 L84.3395982,15.874405 L84.3395982,44.494105 Z M88.1609496,0.701005 C90.8903492,0.701005 93.1280342,2.915455 93.1280342,5.614405 C93.1280342,8.261105 90.8903492,10.474605 88.1609496,10.474605 C85.4862917,10.474605 83.2486067,8.261105 83.2486067,5.614405 C83.2486067,2.915455 85.4862917,0.701005 88.1609496,0.701005 L88.1609496,0.701005 Z M80.7372134,22.570955 C75.1141893,22.678305 71.6750691,25.971955 70.8558651,28.510355 L70.8558651,44.494105 L63.4868705,44.494105 L63.4868705,23.596005 L62.9961164,15.874405 L69.8186548,15.874405 L70.4198526,21.220055 C71.947817,17.980555 74.8414415,15.119155 80.7372134,15.119155 L80.7372134,22.570955 Z M44.8170862,22.192855 C40.9966951,22.192855 38.4305601,24.622955 37.8850644,26.998905 L37.8850644,33.801855 C38.4305601,36.178755 40.9966951,38.608855 44.8170862,38.608855 C48.6384376,38.608855 51.5320621,35.854805 51.5320621,30.346705 C51.5320621,24.838605 48.6384376,22.192855 44.8170862,22.192855 L44.8170862,22.192855 Z M37.8850644,55.293705 L30.4594074,55.293705 L30.4594074,23.596005 L29.9696137,15.874405 L36.7931125,15.874405 L37.3923895,19.383705 C38.7580497,16.468155 42.6331824,15.119155 46.017561,15.119155 C54.9164407,15.119155 59.2832879,20.464805 59.2832879,30.183305 C59.2832879,39.904655 54.7522157,45.250305 46.017561,45.250305 C41.6507138,45.250305 38.9213143,43.900355 37.8850644,41.632705 L37.8850644,55.293705 Z M19.0510551,36.178755 C19.0510551,34.018455 17.0861179,33.694505 12.7192708,33.316405 C7.09624672,32.830005 0.872985285,31.965505 0.872985285,24.406355 C0.872985285,17.385855 7.75122578,15.119155 13.3742498,15.119155 C22.1079442,15.119155 25.4923228,18.034705 26.2567851,24.136555 L18.6140823,25.108405 C18.2875531,22.839805 17.0313763,21.436655 13.3742498,21.436655 C10.8628565,21.436655 8.78843602,22.084555 8.78843602,23.975055 C8.78843602,25.918755 10.371142,26.187605 14.6294663,26.620805 C20.4157549,27.214555 26.8022809,27.916605 26.8022809,35.584055 C26.8022809,42.873405 20.4704965,45.250305 13.2100249,45.250305 C4.42158884,45.250305 0.436012453,42.064955 0,35.908955 L7.64270286,34.936155 C7.96923201,37.797555 9.55289839,39.095255 13.2100249,39.095255 C16.9766346,39.095255 19.0510551,38.447355 19.0510551,36.178755 L19.0510551,36.178755 Z" id="Fill-1"></path>
        </g>
        <g id="Group-6" transform="translate(275.000000, 14.000000)" fill-opacity="0.5" fill="#FFFFFF">
            <path d="M10.819661,15.501772 C13.3829797,15.501772 14.7461818,13.768612 14.7461818,11.3843253 C14.7461818,8.94569867 13.3829797,7.21253867 10.819661,7.21253867 C8.31198315,7.21253867 6.94878107,8.94569867 6.94878107,11.3843253 C6.94878107,13.768612 8.31198315,15.501772 10.819661,15.501772 M10.819661,0.871918667 C17.6356714,0.871918667 21.5631515,5.20672533 21.5631515,11.2756453 C21.5631515,16.045172 19.1072773,19.7298053 14.6915002,21.084492 C15.7822538,23.792912 18.0721646,24.9321453 21.5084699,24.9321453 C25.9798879,24.9321453 29.8498085,22.114092 30.7784359,14.0936987 C32.0322748,3.363932 38.2487065,0.871918667 44.8459906,0.871918667 C52.3162612,0.871918667 54.87958,2.93111867 62.077402,2.93111867 C66.0586044,2.93111867 69.5476727,2.22660533 73.3111081,0.763238667 C70.6384262,11.8714787 61.7493126,21.1922187 49.4824126,21.1922187 C45.0100353,21.1922187 40.5923397,20.1082787 37.3210384,16.5866653 C36.0115586,26.178152 29.5783192,31.108792 21.4537884,31.108792 C14.4737333,31.108792 8.96720272,28.3994187 7.38527435,21.2465587 C2.7498117,20.000552 0.132770702,16.2072387 0.132770702,11.2756453 C0.132770702,5.20672533 4.0583322,0.871918667 10.819661,0.871918667" id="Fill-4"></path>
        </g>
    </g>
</svg>
