<?xml version="1.0" encoding="utf-8"?>
<svg xmlns="http://www.w3.org/2000/svg" width="160" height="28" viewBox="0 0 160 28">
    <g>
        <path fill="#4A4A4A" d="M8.9,17.7c0-1-0.9-1.1-2.9-1.3c-2.6-0.2-5.4-0.7-5.4-4.1C0.6,9.1,3.7,8,6.4,8c4,0,5.5,1.3,5.9,4.2l-3.6,0.4
            c-0.2-1.2-0.8-1.8-2.5-1.8c-1.1,0-2.1,0.3-2.1,1.2s0.8,1,2.7,1.2c2.7,0.2,5.5,0.6,5.5,4.1c0,3.3-2.9,4.4-6.2,4.4
            c-4,0-5.9-1.4-6.1-4.3L3.6,17c0.1,1.3,0.9,1.9,2.6,1.9C7.9,19,8.9,18.8,8.9,17.7 M17.5,26.5h-3.4V11.8l-0.2-3.6H17l0.2,1.7
            c0.7-1.4,2.4-2,4-2c4.1,0,6.1,2.4,6.1,7s-2.1,7-6.1,7c-2,0-3.2-0.7-3.8-1.7v6.3H17.5z M20.6,11.1c-1.8,0-2.9,1.1-3.2,2.2v3.1
            c0.2,1.1,1.4,2.2,3.2,2.2c1.8,0,3.1-1.3,3.1-3.9C23.7,12.3,22.4,11.1,20.6,11.1 M37.2,11.3c-2.6,0-4.1,1.6-4.5,2.8v7.4h-3.3v-9.7
            l-0.2-3.6h3.1l0.2,2.4c0.7-1.6,2-2.9,4.8-2.9v3.6H37.2z M40.6,1.1c1.2,0,2.3,1,2.3,2.3c0,1.2-1,2.2-2.3,2.2c-1.2,0-2.2-1-2.2-2.2
            C38.3,2.2,39.4,1.1,40.6,1.1 M38.8,8.2h3.4v13.3h-3.4C38.8,21.5,38.8,8.2,38.8,8.2z M47.8,9.9c0.8-1.2,2.1-2.1,4.1-2.1
            c3.1,0,4.9,1.6,4.9,4.7v9h-3.4V13c0-1.3-0.7-2-2.1-2c-1.8,0-3,1.2-3.3,2.2v8.2h-3.3v-9.6l-0.1-3.6h3.1L47.8,9.9L47.8,9.9z
             M68.5,19.4c-0.6,1.2-2,1.7-3.8,1.7c-3.9,0-6.1-2.1-6.1-6.7s2.3-6.7,6.2-6.7c1.9,0,3.2,0.7,3.9,2l0.2-1.6H72l-0.1,3.6v9.8
            c0,3.7-2.8,5.3-6.5,5.3c-4.4,0-6.1-1.6-6.3-4.2l3.7-0.6c0.1,1,0.6,1.9,2.6,1.9c1.9,0,3.2-0.8,3.2-2.7L68.5,19.4L68.5,19.4z
             M65.2,18c1.8,0,3-1.1,3.2-2.3v-2.3C68.2,12.2,67,11,65.2,11c-1.8,0-3.1,0.9-3.1,3.6C62.1,17.1,63.5,18,65.2,18 M74.3,1.5h3.4v20.1
            h-3.4V1.5z M79.6,14.9c0-4.7,2.6-7,6.5-7c4,0,6.5,2.3,6.5,7s-2.6,7-6.5,7C82.1,21.9,79.6,19.4,79.6,14.9 M83.1,14.9
            c0,2.8,1.1,3.8,3,3.8s3-1,3-3.8s-1.1-3.8-3-3.8C84.2,11.1,83.1,12.1,83.1,14.9 M107.3,11.8v6.1l0.2,3.6h-3.1l-0.2-1.6
            c-0.6,1.3-1.9,1.9-3.8,1.9c-4,0-6.1-2.4-6.1-7s2.2-7,6.1-7c2,0,3.1,0.8,3.8,1.9l0.2-1.4h3.1L107.3,11.8L107.3,11.8z M103.9,13.3
            c-0.2-1.1-1.4-2.2-3.2-2.2c-1.8,0-3,1.2-3,3.8s1.2,3.8,3,3.8s3-1.1,3.2-2.2V13.3z M122.5,1.5v16.4l0.2,3.6h-3.1l-0.2-1.6
            c-0.6,1.2-1.9,1.9-3.9,1.9c-4,0-6.1-2.4-6.1-7s2.2-7,6.1-7c1.8,0,3.1,0.6,3.7,1.7v-8L122.5,1.5L122.5,1.5z M119.2,13.3
            c-0.2-1.1-1.4-2.2-3.2-2.2c-1.8,0-3,1.2-3,3.8s1.2,3.8,3,3.8s3-1.1,3.2-2.2V13.3z"/>
        <path fill="#7DC265" d="M154.7,8.8c-3.3,0-4.4-1-7.9-1c-3,0-5.9,1.1-6.4,6.1c-0.4,3.7-2.2,5-4.2,5c-1.6,0-2.7-0.6-3.1-1.8
            c2-0.7,3.1-2.3,3.1-4.5c0-2.8-1.8-4.8-4.9-4.8c-3.1,0-4.9,2-4.9,4.8c0,2.3,1.2,4,3.3,4.7c0.8,3.3,3.2,4.5,6.4,4.5
            c3.8,0,6.7-2.3,7.3-6.8c1.6,1.7,3.6,2.1,5.5,2.1c5.7,0,9.8-4.3,11-9.4C158.1,8.5,156.6,8.8,154.7,8.8z M131.2,14.7
            c-1.1,0-1.8-0.8-1.8-1.9s0.7-1.9,1.8-1.9c1.2,0,1.8,0.8,1.8,1.9C132.9,13.8,132.4,14.7,131.2,14.7z"/>
    </g>
</svg>
