<?xml version="1.0" encoding="UTF-8" standalone="no"?>
<svg width="14px" height="9px" viewBox="0 0 14 9" version="1.1" xmlns="http://www.w3.org/2000/svg" xmlns:xlink="http://www.w3.org/1999/xlink">
    <g id="slices" stroke="none" stroke-width="1" fill="none" fill-rule="evenodd">
        <g id="tag-copy" fill="#8FA4A9">
            <path d="M0.239253908,4.06852107 L1.76971931,1.31368327 C2.17278998,0.588156036 3.1675391,7.61006164e-23 4.0029675,7.61006164e-23 L11.9963963,7.61006164e-23 C13.1027039,7.61006164e-23 13.9995434,0.89585781 13.9995434,1.9973917 L13.9995434,7.00260829 C13.9995434,8.10573726 13.0971577,8.99999999 11.9963963,8.99999999 L4.00296758,9 C3.17264934,9 2.17271208,8.41170358 1.76971937,7.68631672 L0.239253917,4.9314789 C0.106865458,4.69317968 0.106965278,4.30664061 0.239253908,4.06852107 Z M2.52514072,1.88319777 C2.78714609,1.3954211 3.45411491,0.999999985 3.99255354,0.999999985 L11.9825485,0.999999985 C12.5309729,0.999999985 12.9755586,1.43788134 12.9755586,2.00292932 L12.9755586,6.99707066 C12.9755586,7.55097323 12.5209872,7.99999999 11.9825485,7.99999999 L3.99255356,7.99999999 C3.44412921,7.99999999 2.78388384,7.59850548 2.52514074,7.1168022 L1.11954615,4.49999999 L2.52514072,1.88319777 Z M4.49954341,5.99999999 C5.32797053,5.99999999 5.99954341,5.32842711 5.99954341,4.49999999 C5.99954341,3.67157286 5.32797053,2.99999999 4.49954341,2.99999999 C3.67111628,2.99999999 2.99954341,3.67157286 2.99954341,4.49999999 C2.99954341,5.32842711 3.67111628,5.99999999 4.49954341,5.99999999 L4.49954341,5.99999999 Z M4.49954341,4.99999999 C4.77568578,4.99999999 4.99954341,4.77614236 4.99954341,4.49999999 C4.99954341,4.22385761 4.77568578,3.99999999 4.49954341,3.99999999 C4.22340103,3.99999999 3.99954341,4.22385761 3.99954341,4.49999999 C3.99954341,4.77614236 4.22340103,4.99999999 4.49954341,4.99999999 L4.49954341,4.99999999 Z" id="tag"></path>
        </g>
    </g>
</svg>