<svg xmlns="http://www.w3.org/2000/svg" width="32px" height="32px" viewBox="0 0 32 32">
<path d="M22.154,3.001c-3.629,0-6.566,2.939-6.566,6.563c0,0.515,0.059,1.016,0.168,1.496C10.307,10.784,5.469,8.17,2.23,4.201
	c-0.565,0.97-0.89,2.097-0.89,3.301c0,2.277,1.158,4.288,2.918,5.461c-1.077-0.032-2.088-0.328-2.969-0.816
	c-0.003,0.022-0.003,0.051-0.003,0.08c0,3.179,2.262,5.832,5.267,6.435C6,18.811,5.421,18.889,4.821,18.889
	c-0.422,0-0.834-0.038-1.234-0.117c0.835,2.608,3.262,4.505,6.132,4.561c-2.246,1.758-5.078,2.806-8.153,2.806
	c-0.53,0-1.054-0.029-1.566-0.09c2.904,1.861,6.355,2.949,10.062,2.949c12.075,0,18.677-10.001,18.677-18.676
	c0-0.285-0.006-0.566-0.016-0.846c1.283-0.928,2.395-2.085,3.277-3.4c-1.178,0.523-2.443,0.875-3.771,1.034
	c1.357-0.813,2.397-2.101,2.888-3.633c-1.269,0.754-2.672,1.299-4.171,1.592C25.751,3.796,24.04,3.001,22.154,3.001"/>
</svg>
