<svg xmlns="http://www.w3.org/2000/svg" width="32px" height="32px" viewBox="0 0 32 32">
<path d="M31.679,9.385c0,0-0.313-2.279-1.27-3.284c-1.219-1.318-2.58-1.325-3.207-1.401c-4.477-0.336-11.194-0.336-11.194-0.336
	h-0.015c0,0-6.717,0-11.194,0.335C4.172,4.775,2.81,4.781,1.591,6.099c-0.957,1.004-1.27,3.284-1.27,3.284S0,12.061,0,14.74v2.511
	c0,2.678,0.321,5.356,0.321,5.356s0.313,2.281,1.27,3.284c1.219,1.318,2.819,1.277,3.532,1.415C7.679,27.558,16,27.636,16,27.636
	s6.724-0.01,11.201-0.345c0.627-0.077,1.988-0.084,3.207-1.402c0.957-1.002,1.27-3.284,1.27-3.284S32,19.927,32,17.249v-2.511
	C32,12.061,31.679,9.385,31.679,9.385L31.679,9.385z M12.697,20.291v-9.296l8.646,4.665L12.697,20.291L12.697,20.291z"/>
</svg>
