<?xml version="1.0" encoding="utf-8"?>
<svg version="1.1" id="Layer_1" xmlns="http://www.w3.org/2000/svg" xmlns:xlink="http://www.w3.org/1999/xlink" x="0px" y="0px"
	 width="100px" height="100px" viewBox="-589 351 100 100" enable-background="new -589 351 100 100" xml:space="preserve">
<path d="M-551.3,405.4c-1,0-1.8,0.8-1.8,1.8c0,2.7,0.2,5.8,0.4,8.5c0.1,1,0.9,1.6,1.8,1.6c0.1,0,0.2,0,0.2,0
	c1-0.1,1.7-1,1.6-2c-0.3-2.5-0.3-5.6-0.3-8.1C-549.4,406.2-550.3,405.4-551.3,405.4z"/>
<path d="M-496.7,410.5l-0.7-3.6c-0.4-2.5-0.4-5,0.1-7.6l0.5-2.5c0.6-2.9,0.6-6,0.1-9l-0.6-3.2
	c-0.3-1.6-1.3-2.8-2.9-3.2c-1.5-0.5-2.9-0.3-4.1,0.8l-13,11.7c-0.2-3.2-0.4-5.4-0.7-6.9c-0.3-2.4-2.3-4.2-4.6-4.7
	c-2.6-0.4-7.5-0.9-16.3-0.9s-13.8,0.5-16.4,0.9c-2.4,0.3-4.2,2.3-4.6,4.6c-0.3,1.8-0.5,4.1-0.7,7.1l-13.2-11.6
	c-1.1-1-2.8-1.4-4.1-0.9c-1.4,0.5-2.5,1.6-2.9,3.1l-0.4,2.2c-0.7,2.9-0.7,6-0.2,9l0.7,3.6c0.4,2.5,0.4,5-0.1,7.6l-0.5,2.5
	c-0.6,2.9-0.6,6-0.1,9l0.6,3.2c0.3,1.6,1.3,2.8,2.9,3.2c0.4,0.2,1,0.3,1.5,0.3c1,0,2-0.3,2.9-1.1l13.1-11.6c0.2,3.4,0.4,5.7,0.7,7.1
	c0.3,2.4,2.3,4.2,4.7,4.6c2.5,0.3,7.4,0.9,16.3,0.9s13.9-0.4,16.3-0.9c2.4-0.3,4.3-2.3,4.7-4.7c0.3-1.5,0.5-3.6,0.7-7.1l13,11.6
	c0.8,0.7,1.8,1.1,2.9,1.1c0.4,0,1-0.1,1.4-0.3c1.5-0.5,2.5-1.6,2.9-3.1l0.4-2.2C-496.2,416.6-496.2,413.7-496.7,410.5z
	 M-554.7,385.7c2.5-0.3,7.3-0.9,15.8-0.9s13.4,0.4,15.8,0.9c0.9,0.2,1.6,0.8,1.7,1.7c0.3,1.9,0.6,5.1,0.7,10.7
	c-0.3-0.2-0.8-0.3-1.2-0.3c-2.8-0.4-7.9-0.9-17-0.9c-9.2,0-14.4,0.5-17,0.9c-0.4,0.1-0.8,0.3-1.2,0.3c0.2-5.7,0.4-8.9,0.7-10.7
	C-556.3,386.6-555.6,385.9-554.7,385.7z M-575.9,421.4c-0.3,0.3-0.5,0.2-0.7,0.2c-0.2-0.1-0.3-0.2-0.4-0.5l-0.6-3.2
	c-0.5-2.6-0.4-5.1,0.1-7.7l0.5-2.5c0.5-2.9,0.6-6,0-8.8l-0.7-3.6c-0.4-2.6-0.3-5.2,0.2-7.8l0.4-2.2c0.1-0.3,0.3-0.4,0.4-0.5
	c0.2,0,0.3-0.1,0.6,0.2l15.4,13.6c0,0.3,0,0.5,0,0.8l-6.3-1.1c-1-0.2-2,0.5-2.1,1.5c-0.2,1,0.5,2,1.5,2.1l6.9,1.3c0,0.1,0,0.3,0,0.3
	v0.3l-8.8,1.6c-1,0.2-1.6,1.1-1.5,2.1c0.2,0.9,1,1.6,1.8,1.6c0.1,0,0.3,0,0.3,0l8.3-1.6c0,0.3,0,0.5,0,0.8L-575.9,421.4z
	 M-521.5,419.1c-0.2,0.9-0.8,1.6-1.7,1.7c-2.4,0.3-7.1,0.8-15.7,0.8c-8.7,0-13.5-0.4-15.8-0.8c-0.9-0.2-1.6-0.8-1.7-1.7
	c-0.3-2.3-0.8-6.9-0.8-15.8c0-0.1,0-0.3,0-0.3c0.2-0.9,0.9-1.5,1.8-1.6c2.6-0.3,7.5-0.9,16.5-0.9c8.9,0,14,0.4,16.5,0.9
	c1,0.2,1.6,0.8,1.8,1.6c0,0.1,0,0.2,0,0.3C-520.6,412.1-521,416.7-521.5,419.1z M-500.3,419l-0.4,2.2c-0.1,0.3-0.3,0.4-0.4,0.5
	c-0.2,0.1-0.3,0.1-0.7-0.2L-517,408c0-0.3,0-0.6,0-0.9l6,1.1c0.2,0,0.3,0,0.3,0c0.9,0,1.6-0.6,1.8-1.6c0.2-1-0.5-2-1.5-2.1l-6.7-1.2
	c0-0.1,0-0.2,0-0.3c0-0.1,0-0.2,0-0.3l9.2-1.6c1-0.2,1.6-1.1,1.5-2.1c-0.2-1-1.1-1.6-2.1-1.5l-8.6,1.6c0-0.3,0-0.7,0-1l15.2-13.5
	c0.3-0.3,0.5-0.2,0.7-0.2c0.2,0.1,0.3,0.2,0.4,0.5l0.6,3.2c0.5,2.6,0.4,5.1-0.1,7.7l-0.5,2.5c-0.7,2.9-0.7,6-0.2,8.9l0.7,3.6
	C-499.7,413.8-499.8,416.4-500.3,419z"/>
</svg>
