<?xml version="1.0" encoding="UTF-8" standalone="no"?>
<svg width="252px" height="276px" viewBox="0 0 252 276" version="1.1" xmlns="http://www.w3.org/2000/svg" xmlns:xlink="http://www.w3.org/1999/xlink">
    <!-- Generator: Sketch 41 (35326) - http://www.bohemiancoding.com/sketch -->
    <title>springtunes-logo</title>
    <desc>Created with Sketch.</desc>
    <defs></defs>
    <g id="Page-1" stroke="none" stroke-width="1" fill="none" fill-rule="evenodd">
        <g id="springtunes-logo" transform="translate(-4.000000, 0.000000)" fill="#7DC265">
            <g id="Page-1">
                <g id="springtunes">
                    <path d="M205.473684,20.2105263 C171.789474,26.2736842 158.989474,17.5157895 123.284211,24.2526316 C105.768421,26.9473684 89.6,33.6842105 79.4947368,48.5052632 C76.1263158,52.5473684 72.7578947,57.9368421 70.7368421,64 C62.6526316,83.5368421 65.3473684,106.442105 78.1473684,132.715789 C80.8421053,138.105263 82.8631579,142.821053 84.8842105,147.536842 C76.8,146.189474 61.3052632,145.515789 45.8105263,151.578947 C18.8631579,161.010526 4.04210526,182.568421 4.04210526,211.536842 C4.04210526,249.263158 28.2947368,275.536842 69.3894737,275.536842 C103.747368,275.536842 125.978947,257.347368 132.715789,229.052632 C136.757895,214.905263 142.821053,173.810526 113.852632,114.526316 C113.178947,113.178947 112.505263,111.157895 111.831579,109.810526 C128,117.894737 145.515789,117.894737 161.010526,115.2 C218.947368,105.094737 253.305263,53.8947368 256,0 C239.831579,11.4526316 225.010526,16.8421053 205.473684,20.2105263 Z M70.7368421,233.768421 C54.5684211,233.768421 46.4842105,222.989474 46.4842105,208.168421 C47.8315789,194.694737 54.5684211,182.568421 70.7368421,182.568421 C85.5578947,182.568421 94.9894737,193.347368 94.9894737,208.168421 C94.9894737,222.989474 85.5578947,233.768421 70.7368421,233.768421 Z" id="Shape"></path>
                </g>
            </g>
        </g>
    </g>
</svg>